<svg xmlns="http://www.w3.org/2000/svg" viewBox="0 0 24 24" width="24" height="24">
  <path d="M12,2C6.5,2,2,6.5,2,12s4.5,10,10,10s10-4.5,10-10S17.5,2,12,2z M4,12c0-1.4,0.4-2.7,1-3.9
    C5.8,9.3,7.4,10.5,9.3,11.3C9.1,11.5,9,11.8,9,12c0,0.2,0.1,0.5,0.3,0.7c-1.9,0.8-3.5,2-4.3,3.2C4.4,14.7,4,13.4,4,12z
    M12,20c-1.4,0-2.7-0.4-3.9-1c0.7-1,2.1-2.1,3.9-2.8c1.8,0.7,3.2,1.8,3.9,2.8C14.7,19.6,13.4,20,12,20z M16.9,18
    c-0.9-1.1-2.3-2-3.9-2.7V14c0-0.6-0.4-1-1-1s-1,0.4-1,1v1.3c-1.6,0.7-3,1.6-3.9,2.7C6.1,17,5.3,15.6,4.9,14
    c0.9-1.1,2.4-2.1,4.1-2.7c0.6,0.4,1.3,0.7,2,0.7c0.7,0,1.4-0.3,2-0.7c1.7,0.6,3.2,1.6,4.1,2.7C16.7,15.6,15.9,17,16.9,18z
    M17,12c0-0.2-0.1-0.5-0.3-0.7c1.9-0.8,3.5-2,4.3-3.2C19.6,9.3,20,10.6,20,12c0,1.4-0.4,2.7-1,3.9c-0.7-1-2.1-2.1-3.9-2.8
    C15.9,12.5,16,12.2,17,12z" fill="none" stroke="currentColor" stroke-width="0"/>
  <circle cx="12" cy="12" r="9.5" fill="none" stroke="currentColor" stroke-width="1.5"/>
  <ellipse cx="12" cy="12" rx="4" ry="9.5" fill="none" stroke="currentColor" stroke-width="1.5"/>
  <line x1="3" y1="9" x2="21" y2="9" stroke="currentColor" stroke-width="1.5"/>
  <line x1="3" y1="15" x2="21" y2="15" stroke="currentColor" stroke-width="1.5"/>
  <line x1="12" y1="2.5" x2="12" y2="21.5" stroke="currentColor" stroke-width="1.5"/>
</svg>
