<svg xmlns="http://www.w3.org/2000/svg" viewBox="0 0 317 64">
  <g>
    <path d="M7.27,22.64a8.824,8.824,0,0,1-4.26-.95A11.514,11.514,0,0,1,0,19.31l3.16-2.38a5.087,5.087,0,0,0,1.76,1.78,4.5,4.5,0,0,0,2.32.62,2.812,2.812,0,0,0,2.1-.74,2.363,2.363,0,0,0,.73-1.68,1.435,1.435,0,0,0-.33-.96,2.9,2.9,0,0,0-.87-.68,7.6,7.6,0,0,0-1.24-.51q-.705-.225-1.44-.45c-.63-.2-1.26-.41-1.88-.64a6.151,6.151,0,0,1-1.69-.93A4.592,4.592,0,0,1,1.4,11.3,4.429,4.429,0,0,1,.93,9.16a4.512,4.512,0,0,1,.46-2.03A4.967,4.967,0,0,1,2.68,5.49a6.041,6.041,0,0,1,1.96-1.1,7.553,7.553,0,0,1,2.46-.4,9.7,9.7,0,0,1,2.03.2,8.3,8.3,0,0,1,1.66.56,7.406,7.406,0,0,1,1.38.85,12.084,12.084,0,0,1,1.19,1.08L10.51,8.9A3.809,3.809,0,0,0,7.15,7.06a2.866,2.866,0,0,0-1.94.59,1.89,1.89,0,0,0-.66,1.46,1.385,1.385,0,0,0,.31.92,2.813,2.813,0,0,0,.83.66,7.219,7.219,0,0,0,1.21.51c.46.15.94.31,1.45.47.63.2,1.26.43,1.9.68a7.345,7.345,0,0,1,1.73.99,4.732,4.732,0,0,1,1.26,1.48,4.547,4.547,0,0,1,.48,2.19,5.238,5.238,0,0,1-.43,2.08,5.413,5.413,0,0,1-1.25,1.79,6.149,6.149,0,0,1-2.01,1.26,7.3,7.3,0,0,1-2.73.48Z"/>
    <path d="M23.139,22.64a7.486,7.486,0,0,1-5.02-1.96,7.089,7.089,0,0,1-1.68-2.35,7.588,7.588,0,0,1-.64-3.16,7.844,7.844,0,0,1,.62-3.18,7.184,7.184,0,0,1,1.66-2.35,7.072,7.072,0,0,1,2.37-1.46,7.814,7.814,0,0,1,2.74-.5,7.029,7.029,0,0,1,2.73.53,5.663,5.663,0,0,1,2.06,1.46V7.7h3.44V22.6h-3.44V20.48a5.524,5.524,0,0,1-2.09,1.57,6.672,6.672,0,0,1-2.75.57Zm.56-3.16a4.662,4.662,0,0,0,1.78-.33,4.086,4.086,0,0,0,1.4-.93,4.58,4.58,0,0,0,.93-1.39,4.345,4.345,0,0,0,0-3.37,4.415,4.415,0,0,0-.93-1.38,4.209,4.209,0,0,0-1.4-.92,4.7,4.7,0,0,0-1.78-.34,4.5,4.5,0,0,0-1.77.34,4.643,4.643,0,0,0-1.44.91,4.1,4.1,0,0,0-.96,1.36,4.164,4.164,0,0,0-.34,1.7,4.235,4.235,0,0,0,1.3,3.1,4.492,4.492,0,0,0,1.44.92,4.721,4.721,0,0,0,1.77.33"/>
    <path d="M34.149,7.72h3.41V9.64a5.08,5.08,0,0,1,1.8-1.43,5.555,5.555,0,0,1,2.46-.52,6.038,6.038,0,0,1,2.97.67,4.674,4.674,0,0,1,1.87,1.87,5.628,5.628,0,0,1,2.03-1.84,5.882,5.882,0,0,1,2.869-.69A5.935,5.935,0,0,1,56.1,9.34a6.317,6.317,0,0,1,1.53,4.49v8.8h-3.52v-8.5a3.7,3.7,0,0,0-.82-2.53,3.042,3.042,0,0,0-2.42-.93,3.164,3.164,0,0,0-2.339.95,3.882,3.882,0,0,0-.94,2.86v8.14H44.1V14.03a3.549,3.549,0,0,0-.79-2.46,2.957,2.957,0,0,0-2.34-.9,3.233,3.233,0,0,0-2.41.97,3.988,3.988,0,0,0-.96,2.91v8.07h-3.44V7.72Z"/>
    <path d="M65.808,22.64a8.264,8.264,0,0,1-4.1-.92,6.176,6.176,0,0,1-2.52-2.66l3.18-1.43a3.809,3.809,0,0,0,1.45,1.5,4.218,4.218,0,0,0,2.14.53,3.062,3.062,0,0,0,1.91-.51,1.538,1.538,0,0,0,.64-1.21.788.788,0,0,0-.29-.63,2.853,2.853,0,0,0-.76-.42,6.286,6.286,0,0,0-1.11-.3c-.42-.08-.87-.17-1.32-.27-.65-.13-1.28-.28-1.9-.46a6.186,6.186,0,0,1-1.67-.74,3.957,3.957,0,0,1-1.2-1.21,3.42,3.42,0,0,1-.46-1.86,3.45,3.45,0,0,1,.42-1.64,4.6,4.6,0,0,1,1.18-1.4,6.1,6.1,0,0,1,1.85-.96,7.877,7.877,0,0,1,2.41-.35,7.623,7.623,0,0,1,3.73.83,6.324,6.324,0,0,1,2.36,2.26l-2.93,1.39a3.31,3.31,0,0,0-1.27-1.19,3.924,3.924,0,0,0-1.88-.44,2.886,2.886,0,0,0-1.81.46,1.345,1.345,0,0,0-.59,1.07c0,.47.29.81.87,1.01a20.116,20.116,0,0,0,2.55.64,16.045,16.045,0,0,1,1.85.45,7.221,7.221,0,0,1,1.69.75,3.981,3.981,0,0,1,1.24,1.21,3.421,3.421,0,0,1,.47,1.86,3.916,3.916,0,0,1-.36,1.57,4.6,4.6,0,0,1-1.11,1.51,5.773,5.773,0,0,1-1.9,1.13,7.735,7.735,0,0,1-2.75.44Z"/>
    <path d="M87.337,22.62h-3.41V20.75a5.084,5.084,0,0,1-1.78,1.39,5.752,5.752,0,0,1-2.5.5,5.453,5.453,0,0,1-4.19-1.65,6.461,6.461,0,0,1-1.54-4.6V7.72h3.49v8.29a4.21,4.21,0,0,0,.78,2.68,2.87,2.87,0,0,0,2.41.98,3.1,3.1,0,0,0,2.37-1.02,4.172,4.172,0,0,0,.94-2.94V7.72h3.44v14.9Z"/>
    <path d="M90.1,7.72h3.41V9.76a5.539,5.539,0,0,1,1.87-1.5,6.437,6.437,0,0,1,6.93,1.09,6.429,6.429,0,0,1,1.57,4.6v8.68h-3.49v-8.3a4,4,0,0,0-.84-2.68,3.116,3.116,0,0,0-2.52-.98,3.334,3.334,0,0,0-2.48,1.02,4.017,4.017,0,0,0-1.01,2.94v7.99H90.1Z"/>
    <path d="M118.216,20.35a5.679,5.679,0,0,1-2.09,1.68,6.29,6.29,0,0,1-2.78.61,7.486,7.486,0,0,1-5.02-1.96,7.088,7.088,0,0,1-1.68-2.35,7.588,7.588,0,0,1-.64-3.16,7.844,7.844,0,0,1,.62-3.18,7.184,7.184,0,0,1,1.66-2.35,7.072,7.072,0,0,1,2.37-1.46,7.814,7.814,0,0,1,2.74-.5,6.4,6.4,0,0,1,2.73.58,5.75,5.75,0,0,1,2.06,1.55V7.71h3.44V22.05a8.488,8.488,0,0,1-.5,2.92,6.709,6.709,0,0,1-1.47,2.38,6.848,6.848,0,0,1-2.41,1.61,8.78,8.78,0,0,1-3.32.59,10.267,10.267,0,0,1-2.64-.32,8.163,8.163,0,0,1-2.13-.89,7.545,7.545,0,0,1-1.66-1.35,8.368,8.368,0,0,1-1.22-1.72l3.06-1.86a6.51,6.51,0,0,0,1.83,2.24,4.7,4.7,0,0,0,2.8.74,4.061,4.061,0,0,0,3.94-2.68,4.557,4.557,0,0,0,.29-1.63V20.35Zm-4.31-.87a4.662,4.662,0,0,0,1.78-.33,4.086,4.086,0,0,0,1.4-.93,4.58,4.58,0,0,0,.93-1.39,4.345,4.345,0,0,0,0-3.37,4.415,4.415,0,0,0-.93-1.38,4.209,4.209,0,0,0-1.4-.92,4.7,4.7,0,0,0-1.78-.34,4.5,4.5,0,0,0-1.77.34,4.643,4.643,0,0,0-1.44.91,4.1,4.1,0,0,0-.96,1.36,4.164,4.164,0,0,0-.34,1.7,4.235,4.235,0,0,0,1.3,3.1,4.492,4.492,0,0,0,1.44.92,4.721,4.721,0,0,0,1.77.33"/>
    <path d="M.01,35.32H3.94L12,48V35.32h3.47V53.94h-3.7L3.48,40.86V53.95H.01V35.32Z"/>
    <path d="M25.569,53.97a8.53,8.53,0,0,1-3.21-.58,7.22,7.22,0,0,1-4.1-3.96,7.475,7.475,0,0,1-.57-2.91,7.376,7.376,0,0,1,2.24-5.33,7.982,7.982,0,0,1,2.46-1.6,7.894,7.894,0,0,1,3.05-.59,8.579,8.579,0,0,1,3.07.54,7.228,7.228,0,0,1,2.44,1.51,7,7,0,0,1,1.59,2.28,7.139,7.139,0,0,1,.57,2.87v1.22H20.969a4.467,4.467,0,0,0,1.56,2.55,4.656,4.656,0,0,0,3.04.97,4.359,4.359,0,0,0,4.14-2.62l2.83,1.63a7.514,7.514,0,0,1-6.97,4.03Zm-.13-11.94a5.078,5.078,0,0,0-2.69.69,3.7,3.7,0,0,0-1.59,1.81h8.47a3.219,3.219,0,0,0-1.48-1.87,5.34,5.34,0,0,0-2.7-.64Z"/>
    <path d="M33.6,39.02h3.52l3.29,10.28,3.75-10.28h3.42l3.669,10.31,3.42-10.31h3.49l-5.23,14.92h-3.32L45.829,43.61l-3.88,10.33h-3.39l-4.97-14.92Z"/>
    <path d="M65.258,53.97a8.331,8.331,0,0,1-4.11-.92,6.256,6.256,0,0,1-2.53-2.66l3.19-1.43a3.836,3.836,0,0,0,1.45,1.51A4.245,4.245,0,0,0,65.4,51a3.082,3.082,0,0,0,1.91-.51,1.542,1.542,0,0,0,.64-1.22.788.788,0,0,0-.29-.63,3.059,3.059,0,0,0-.77-.43,5.923,5.923,0,0,0-1.11-.3c-.42-.08-.87-.17-1.33-.27-.65-.13-1.28-.28-1.9-.46a6.186,6.186,0,0,1-1.67-.74,3.882,3.882,0,0,1-1.2-1.22,3.7,3.7,0,0,1-.04-3.5,4.494,4.494,0,0,1,1.19-1.4,5.686,5.686,0,0,1,1.85-.96,8.7,8.7,0,0,1,6.15.48,6.251,6.251,0,0,1,2.36,2.26l-2.93,1.39a3.269,3.269,0,0,0-1.28-1.19,3.937,3.937,0,0,0-1.89-.44,2.886,2.886,0,0,0-1.81.46,1.36,1.36,0,0,0-.59,1.07c0,.47.29.81.87,1.01a21.644,21.644,0,0,0,2.55.65,16.045,16.045,0,0,1,1.85.45,7.489,7.489,0,0,1,1.7.75,3.905,3.905,0,0,1,1.24,1.22,3.445,3.445,0,0,1,.47,1.86,3.879,3.879,0,0,1-.36,1.57,4.6,4.6,0,0,1-1.11,1.51A5.878,5.878,0,0,1,68,53.54a7.793,7.793,0,0,1-2.76.44Z"/>
    <path d="M73.5,39.02h3.42v2.22a3.851,3.851,0,0,1,3.83-2.22,5.584,5.584,0,0,1,1.47.18,5.3,5.3,0,0,1,1.16.46l-1.3,3.26a3.959,3.959,0,0,0-.85-.42,3.7,3.7,0,0,0-1.21-.17,2.964,2.964,0,0,0-2.28.85,4.08,4.08,0,0,0-.78,2.79v7.96h-3.44V39.01Z"/>
    <path d="M91.867,53.97a7.81,7.81,0,0,1-3.02-.58,7.579,7.579,0,0,1-2.46-1.6,7.291,7.291,0,0,1-1.64-2.38,7.151,7.151,0,0,1-.6-2.91,7.293,7.293,0,0,1,.6-2.94,7.609,7.609,0,0,1,1.64-2.38,7.745,7.745,0,0,1,2.46-1.6,8,8,0,0,1,3.02-.58,7.814,7.814,0,0,1,5.47,2.18A7.455,7.455,0,0,1,99,43.56a7.224,7.224,0,0,1,.6,2.94,7.083,7.083,0,0,1-.6,2.91,7.241,7.241,0,0,1-1.66,2.38,7.974,7.974,0,0,1-2.46,1.6,7.725,7.725,0,0,1-3.01.58m0-3.24a4.416,4.416,0,0,0,1.71-.33,4.363,4.363,0,0,0,1.38-.91,4.1,4.1,0,0,0,.92-1.35,4.143,4.143,0,0,0,.33-1.64,4.24,4.24,0,0,0-.33-1.66,4.1,4.1,0,0,0-.92-1.35,4.363,4.363,0,0,0-1.38-.91,4.416,4.416,0,0,0-1.71-.33,4.466,4.466,0,0,0-1.72.33,4.149,4.149,0,0,0-1.38.91,4.211,4.211,0,0,0-1.24,3.01,4.211,4.211,0,0,0,1.24,2.99,4.149,4.149,0,0,0,1.38.91,4.5,4.5,0,0,0,1.72.33"/>
    <path d="M109.107,53.97a7.81,7.81,0,0,1-3.02-.58,7.579,7.579,0,0,1-2.46-1.6,7.291,7.291,0,0,1-1.64-2.38,7.151,7.151,0,0,1-.6-2.91,7.293,7.293,0,0,1,.6-2.94,7.609,7.609,0,0,1,1.64-2.38,7.745,7.745,0,0,1,2.46-1.6,8,8,0,0,1,3.02-.58,7.814,7.814,0,0,1,5.47,2.18,7.455,7.455,0,0,1,1.66,2.38,7.224,7.224,0,0,1,.6,2.94,7.083,7.083,0,0,1-.6,2.91,7.241,7.241,0,0,1-1.66,2.38,7.974,7.974,0,0,1-2.46,1.6,7.725,7.725,0,0,1-3.01.58m0-3.24a4.416,4.416,0,0,0,1.71-.33,4.363,4.363,0,0,0,1.38-.91,4.1,4.1,0,0,0,.92-1.35,4.143,4.143,0,0,0,.33-1.64,4.24,4.24,0,0,0-.33-1.66,4.1,4.1,0,0,0-.92-1.35,4.363,4.363,0,0,0-1.38-.91,4.416,4.416,0,0,0-1.71-.33,4.466,4.466,0,0,0-1.72.33,4.149,4.149,0,0,0-1.38.91,4.211,4.211,0,0,0-1.24,3.01,4.21,4.21,0,0,0,1.24,2.99,4.149,4.149,0,0,0,1.38.91,4.5,4.5,0,0,0,1.72.33"/>
    <path d="M118.976,39.02h3.42v1.93a5.17,5.17,0,0,1,1.8-1.43,5.558,5.558,0,0,1,2.46-.53,6.038,6.038,0,0,1,2.97.67,4.613,4.613,0,0,1,1.87,1.87,5.654,5.654,0,0,1,2.03-1.85,6.787,6.787,0,0,1,7.409.95,6.317,6.317,0,0,1,1.53,4.49v8.81h-3.52v-8.5a3.686,3.686,0,0,0-.82-2.53,3.042,3.042,0,0,0-2.42-.93,3.185,3.185,0,0,0-2.349.95,3.907,3.907,0,0,0-.94,2.87v8.15h-3.49v-8.6a3.593,3.593,0,0,0-.79-2.47,2.966,2.966,0,0,0-2.35-.9,3.233,3.233,0,0,0-2.41.97,4,4,0,0,0-.96,2.92v8.08h-3.44Z"/>
    <path d="M156.481,53.921A6.573,6.573,0,0,1,153.3,53.2a7.052,7.052,0,0,1-2.243-1.908l1.741-1.288a4.875,4.875,0,0,0,1.587,1.522,4.067,4.067,0,0,0,2.078.528,3.068,3.068,0,0,0,2.11-.708,2.281,2.281,0,0,0,.8-1.783,1.744,1.744,0,0,0-.288-1.015,2.513,2.513,0,0,0-.767-.718,5.555,5.555,0,0,0-1.106-.517q-.624-.221-1.3-.419c-.506-.16-1.008-.338-1.506-.538a5.982,5.982,0,0,1-1.352-.747,3.52,3.52,0,0,1-.982-4.313,3.875,3.875,0,0,1,.982-1.244,4.585,4.585,0,0,1,1.5-.827,5.71,5.71,0,0,1,1.873-.3,5.525,5.525,0,0,1,2.775.638,6.8,6.8,0,0,1,1.956,1.695l-1.618,1.151a3.44,3.44,0,0,0-3.113-1.723,2.961,2.961,0,0,0-1.945.608,1.915,1.915,0,0,0-.737,1.544,1.588,1.588,0,0,0,.287.956,2.443,2.443,0,0,0,.757.678,5.816,5.816,0,0,0,1.086.488c.409.14.832.282,1.269.429q.778.26,1.547.567a5.529,5.529,0,0,1,1.371.787,3.83,3.83,0,0,1,.983,1.165,3.5,3.5,0,0,1,.379,1.7,3.915,3.915,0,0,1-.348,1.615,4.308,4.308,0,0,1-.983,1.375,4.821,4.821,0,0,1-1.546.956,5.58,5.58,0,0,1-2.058.358"/>
    <path d="M163.115,38.991a1.343,1.343,0,0,1,.379-.993,1.371,1.371,0,0,1,1.015-.379,1.389,1.389,0,0,1,1.044.379,1.361,1.361,0,0,1,.369.993,1.294,1.294,0,0,1-1.413,1.393,1.362,1.362,0,0,1-1.025-.379,1.392,1.392,0,0,1-.369-1.014m.41,2.929h1.966V53.9h-1.966Z"/>
    <path d="M168.112,41.92h1.926v2.16A4.63,4.63,0,0,1,171.7,42.5a4.732,4.732,0,0,1,2.4-.6,5.927,5.927,0,0,1,2.12.362,4.276,4.276,0,0,1,1.608,1.055,4.814,4.814,0,0,1,1.013,1.679,6.5,6.5,0,0,1,.359,2.232V53.9h-1.966V47.327a3.922,3.922,0,0,0-.881-2.685,3.3,3.3,0,0,0-2.621-1,3.734,3.734,0,0,0-1.454.281,3.488,3.488,0,0,0-1.168.781,3.583,3.583,0,0,0-.767,1.193,4.019,4.019,0,0,0-.277,1.512V53.9h-1.946Z"/>
    <path d="M187.4,53.921a6.232,6.232,0,0,1-2.366-.454,6.07,6.07,0,0,1-1.945-1.254,5.828,5.828,0,0,1-1.31-1.905,5.9,5.9,0,0,1-.482-2.388,6.016,6.016,0,0,1,.471-2.4,5.882,5.882,0,0,1,1.3-1.9,5.982,5.982,0,0,1,1.945-1.263A6.286,6.286,0,0,1,187.4,41.9a5.4,5.4,0,0,1,2.478.614,4.835,4.835,0,0,1,1.925,1.734V41.92h1.946V53.526A6.508,6.508,0,0,1,193.3,56a5.421,5.421,0,0,1-1.259,1.88,5.61,5.61,0,0,1-1.936,1.2,7.032,7.032,0,0,1-2.5.425,6.8,6.8,0,0,1-3.584-.85,6.35,6.35,0,0,1-2.233-2.324l1.721-1.025a7.309,7.309,0,0,0,.7.993,4.154,4.154,0,0,0,.85.769,3.73,3.73,0,0,0,1.106.5,5.48,5.48,0,0,0,1.464.175,4.743,4.743,0,0,0,1.741-.306,3.7,3.7,0,0,0,1.321-.866,3.779,3.779,0,0,0,.829-1.335,4.908,4.908,0,0,0,.287-1.712V51.677a4.765,4.765,0,0,1-1.935,1.658,5.654,5.654,0,0,1-2.468.586m.184-1.8a4.449,4.449,0,0,0,1.721-.33,4.368,4.368,0,0,0,1.382-.895A4.169,4.169,0,0,0,191.95,47.9a4.015,4.015,0,0,0-.338-1.642,4.224,4.224,0,0,0-2.3-2.245,4.45,4.45,0,0,0-1.721-.332,4.293,4.293,0,0,0-3.983,2.577,4.032,4.032,0,0,0-.338,1.642,4.165,4.165,0,0,0,1.26,2.994,4.39,4.39,0,0,0,1.372.895,4.307,4.307,0,0,0,1.689.33"/>
    <path d="M202.026,53.921a6.227,6.227,0,0,1-2.365-.454,6.07,6.07,0,0,1-1.945-1.254,5.831,5.831,0,0,1-1.311-1.905,5.914,5.914,0,0,1-.481-2.388,6,6,0,0,1,.471-2.4,5.851,5.851,0,0,1,1.3-1.9,5.982,5.982,0,0,1,1.945-1.263,6.281,6.281,0,0,1,2.385-.454,5.482,5.482,0,0,1,2.479.6,4.83,4.83,0,0,1,1.925,1.705V41.92h1.924V53.9H206.43V51.677a4.768,4.768,0,0,1-1.936,1.658,5.651,5.651,0,0,1-2.468.586m.185-1.8a4.444,4.444,0,0,0,1.72-.33,4.346,4.346,0,0,0,1.382-.895,4.165,4.165,0,0,0,1.26-2.994,4.032,4.032,0,0,0-.338-1.642,4.23,4.23,0,0,0-2.3-2.245,4.445,4.445,0,0,0-1.72-.332,4.293,4.293,0,0,0-3.983,2.577,4.015,4.015,0,0,0-.338,1.642,4.165,4.165,0,0,0,1.26,2.994,4.367,4.367,0,0,0,1.372.895,4.3,4.3,0,0,0,1.689.33"/>
    <path d="M217.4,53.921a6.04,6.04,0,0,1-2.519-.537A4.414,4.414,0,0,1,213,51.811v7.578h-1.9V41.92H213v2.327a4.844,4.844,0,0,1,1.926-1.734A5.4,5.4,0,0,1,217.4,41.9a6.2,6.2,0,0,1,2.375.454,5.866,5.866,0,0,1,3.215,3.168,6,6,0,0,1,.472,2.4,5.973,5.973,0,0,1-1.782,4.293,5.979,5.979,0,0,1-1.925,1.254,6.151,6.151,0,0,1-2.355.454m-.185-1.8a4.242,4.242,0,0,0,1.68-.33,4.449,4.449,0,0,0,1.362-.895,4.169,4.169,0,0,0,1.259-2.994,4.032,4.032,0,0,0-.338-1.642,4.28,4.28,0,0,0-.921-1.342,4.347,4.347,0,0,0-1.362-.9,4.243,4.243,0,0,0-1.68-.332,4.572,4.572,0,0,0-1.751.332,4.242,4.242,0,0,0-1.392.9,4.145,4.145,0,0,0-1.239,2.984,4.218,4.218,0,0,0,.327,1.653,4.018,4.018,0,0,0,.912,1.341,4.337,4.337,0,0,0,1.392.895,4.571,4.571,0,0,0,1.751.33"/>
    <path d="M231.467,53.921a6.321,6.321,0,0,1-4.392-1.738,5.912,5.912,0,0,1,0-8.546,6.425,6.425,0,0,1,8.806,0,5.912,5.912,0,0,1,0,8.546,6.3,6.3,0,0,1-1.986,1.274,6.372,6.372,0,0,1-2.428.464m0-1.8a4.239,4.239,0,0,0,1.68-.33,4.382,4.382,0,0,0,1.362-.9,4.189,4.189,0,0,0,.911-1.332,4.082,4.082,0,0,0,.327-1.633,4.15,4.15,0,0,0-1.238-2.985,4.382,4.382,0,0,0-1.362-.9,4.239,4.239,0,0,0-1.68-.331,4.181,4.181,0,0,0-1.658.331,4.176,4.176,0,0,0-2.253,2.245,4.134,4.134,0,0,0-.328,1.643,4.065,4.065,0,0,0,.328,1.633,4.2,4.2,0,0,0,2.253,2.235,4.181,4.181,0,0,0,1.658.33"/>
    <path d="M239.883,41.92h1.925v1.72a3.122,3.122,0,0,1,3.031-1.72,4.394,4.394,0,0,1,1.331.178,6.348,6.348,0,0,1,1,.416l-.82,1.822a4.643,4.643,0,0,0-.716-.379,3.043,3.043,0,0,0-1.107-.153,2.552,2.552,0,0,0-1.955.8,3.626,3.626,0,0,0-.748,2.539v2.243q0,.6.021,1.219v3.3h-1.966Z"/>
    <path d="M254.06,53.921a7.114,7.114,0,0,1-2.6-.454,5.951,5.951,0,0,1-2-1.254,5.53,5.53,0,0,1-1.28-1.885,6.354,6.354,0,0,1,.02-4.747,5.848,5.848,0,0,1,3.278-3.217,6.522,6.522,0,0,1,2.477-.464,7.033,7.033,0,0,1,2.437.411,5.727,5.727,0,0,1,1.946,1.168,5.464,5.464,0,0,1,1.761,4.106v.766H249.636a4.571,4.571,0,0,0,.461,1.557,4.083,4.083,0,0,0,.942,1.208,4.168,4.168,0,0,0,1.352.788,4.895,4.895,0,0,0,1.669.276,4.257,4.257,0,0,0,2.447-.686,4.394,4.394,0,0,0,1.547-1.853l1.658.881a6.36,6.36,0,0,1-2.212,2.5,6.2,6.2,0,0,1-3.44.9m-.1-10.281a4.859,4.859,0,0,0-1.494.223,4.521,4.521,0,0,0-1.25.613,3.774,3.774,0,0,0-.932.942,3.728,3.728,0,0,0-.543,1.192h8.377a3.383,3.383,0,0,0-1.351-2.178,4.657,4.657,0,0,0-2.807-.792"/>
  </g>
</svg>
